PathFileType  4	(X/Y/Z) C:\Users\antoi\Documents\MyRepositories\mobilecap\ResultsAnalysis
DataRate	CameraRate	NumFrames	NumMarkers	Units	OrigDataRate	OrigDataStartFrame	OrigNumFrames
100.0	100.0	4	51	mm	100.0	35	136
Frame#	Time	r_knee			r_shank_antsup			r_ankle			r_calc			r_5meta			r_toe			L_knee			L_shank_antsup			L_ankle			L_calc			L_5meta			L_toe			r_sh2			r_sh3			r_sh4			L_sh2			L_sh3			r_thigh1			r_thigh2			r_thigh3			r_thigh4			r_thigh5			L_thigh1			L_thigh2			L_thigh3			L_thigh4			r.ASIS			r.PSIS			L.ASIS			L.PSIS			C7			R_Shoulder			L_Shoulder			R_Sternum			L_Sternum			R_humerus			R_elbow_med			R_elbow_lat			R_forearm			R_wrist_radius			R_wrist_ulna			L_humerus			L_elbow_med			L_elbow_lat			L_forearm			L_wrist_radius			L_wrist_ulna			R_HJC			L_HJC			R_HJC_reg			L_HJC_reg			
		X1	Y1	Z1	X2	Y2	Z2	X3	Y3	Z3	X4	Y4	Z4	X5	Y5	Z5	X6	Y6	Z6	X7	Y7	Z7	X8	Y8	Z8	X9	Y9	Z9	X10	Y10	Z10	X11	Y11	Z11	X12	Y12	Z12	X13	Y13	Z13	X14	Y14	Z14	X15	Y15	Z15	X16	Y16	Z16	X17	Y17	Z17	X18	Y18	Z18	X19	Y19	Z19	X20	Y20	Z20	X21	Y21	Z21	X22	Y22	Z22	X23	Y23	Z23	X24	Y24	Z24	X25	Y25	Z25	X26	Y26	Z26	X27	Y27	Z27	X28	Y28	Z28	X29	Y29	Z29	X30	Y30	Z30	X31	Y31	Z31	X32	Y32	Z32	X33	Y33	Z33	X34	Y34	Z34	X35	Y35	Z35	X36	Y36	Z36	X37	Y37	Z37	X38	Y38	Z38	X39	Y39	Z39	X40	Y40	Z40	X41	Y41	Z41	X42	Y42	Z42	X43	Y43	Z43	X44	Y44	Z44	X45	Y45	Z45	X46	Y46	Z46	X47	Y47	Z47	X48	Y48	Z48	X49	Y49	Z49	X50	Y50	Z50	X51	Y51	Z51	

35	0.34000000	158.49611	550.90041	-80.56900	179.30982	422.71587	-98.30828	72.37989	96.33688	-145.57356	12.12360	69.12650	-202.86605	204.09345	32.68871	-99.10010	246.50546	62.14303	-166.71582	352.88030	584.71967	-410.78495	377.16976	473.98977	-393.85993	193.40633	174.51948	-344.58815	135.38737	170.23709	-278.88255	298.32311	59.25751	-385.41862	344.57894	75.78244	-325.81057	176.04194	312.22795	-127.07215	112.20731	414.27227	-61.20053	112.08739	297.54473	-74.01810	291.90161	496.18710	-418.01639	274.53692	376.33818	-423.47356	283.69052	774.81527	-72.65583	277.04122	665.08367	-96.22126	233.62861	633.45551	-48.58699	191.95264	766.57288	-7.10117	184.09949	654.30994	-36.32757	332.49550	846.41985	-414.10190	399.95250	726.57035	-413.76512	238.10793	791.56026	-444.08933	307.18610	671.21311	-439.41205	261.30085	1056.59214	-69.31986	52.68345	1084.37245	-149.39130	254.93536	1053.04066	-333.39583	46.74650	1083.40533	-246.55505	120.01690	1589.78884	-176.83853	206.58330	1507.94632	-5.73383	161.01375	1545.75346	-363.51142	256.84630	1505.81931	-174.32854	248.74186	1505.20599	-221.40833	227.69748	1338.21902	58.70362	144.10359	1116.27163	29.69554	176.96941	1138.56550	102.42167	287.62385	1003.81619	89.39987	335.56770	891.66421	87.90707	308.67837	877.33448	118.73903	120.30344	1383.74952	-461.19059	11.26934	1187.38022	-421.66588	34.24677	1204.34649	-498.36935	107.92269	1052.08573	-507.85025	111.37769	936.95755	-543.90117	73.68124	944.05808	-573.91087	179.80229	974.30940	-101.67174	177.50185	961.06767	-314.64082	191.65042	974.93206	-101.83507	181.01646	973.19926	-275.86192	
36	0.35000000	162.59101	550.73452	-80.78780	182.04369	422.56156	-98.49220	72.61046	96.82060	-145.94425	12.22074	69.48542	-203.04919	204.06888	32.67942	-99.09394	246.73128	61.88548	-166.75296	366.84808	584.08216	-407.31753	395.98243	474.46637	-391.61502	232.21681	162.82999	-343.72384	175.63683	154.11192	-277.20200	343.88625	55.31554	-387.51411	390.00444	74.51931	-328.65144	177.93271	312.07196	-127.16053	114.78514	414.65817	-61.55023	113.77379	297.94228	-74.24479	309.26824	491.72078	-414.26921	299.24139	371.11891	-421.08269	291.15268	773.02685	-72.64861	282.86966	663.38586	-96.37816	239.19986	632.44330	-48.96795	199.02241	765.94554	-7.36811	189.84810	653.77859	-36.69456	346.30758	846.47485	-410.96238	413.96216	726.69506	-410.33148	252.71781	791.57300	-442.88004	321.65989	671.15314	-436.69312	272.09186	1055.25330	-68.49989	64.07824	1083.75925	-149.92522	267.28016	1052.26802	-332.56135	58.60377	1082.86405	-247.03557	132.77815	1589.12752	-176.61225	219.65303	1507.52302	-5.53445	173.05832	1544.58977	-363.32376	269.70077	1505.09384	-174.30752	261.23623	1504.28520	-221.38352	241.94828	1338.20273	59.08317	159.76022	1115.48683	31.86804	192.96622	1138.42986	104.21064	304.81998	1004.72190	90.72790	353.95165	893.11668	89.25229	327.25072	878.59540	120.33797	130.38089	1382.92659	-460.60457	20.03996	1187.46111	-420.16061	41.97023	1204.48774	-497.11395	114.52164	1051.65381	-508.05778	116.54529	936.61414	-544.44340	78.39166	943.90372	-573.66969	190.56602	973.25216	-101.52890	189.56450	960.40779	-314.53213	202.47845	974.06621	-101.37989	192.66535	972.46084	-275.42356	
37	0.36000000	166.93983	550.51081	-81.00974	185.01614	422.32498	-98.75276	72.92159	97.31199	-146.36796	12.36665	69.85945	-203.25539	204.03636	32.68412	-99.10777	246.98684	61.62060	-166.81465	379.83781	582.58938	-403.62857	413.88536	474.53862	-389.16715	271.64160	151.70934	-343.14225	216.89227	138.66591	-275.77127	389.58836	52.43422	-389.88266	435.46041	74.45726	-331.81466	179.99135	311.85118	-127.36577	117.65186	414.97751	-61.92094	115.69233	298.27507	-74.50834	326.02587	486.49398	-410.54531	323.73759	365.55670	-418.70715	298.70988	771.13121	-72.65438	288.85010	661.60866	-96.56382	244.93864	631.33379	-49.39837	206.21642	765.20478	-7.61922	195.78379	653.16536	-37.08732	359.49306	845.60959	-407.96195	427.18254	725.82354	-406.83734	266.70363	790.94484	-441.30143	335.06831	670.20947	-433.51240	282.97445	1053.77740	-67.77741	75.60358	1083.02615	-150.50340	279.71550	1051.14380	-331.76904	70.58772	1082.15373	-247.57786	145.54895	1588.24271	-176.49584	232.60587	1506.89135	-5.39612	185.24038	1543.23047	-363.21248	282.56458	1504.15684	-174.30828	273.74492	1503.14982	-221.38802	256.04764	1337.97914	59.42610	175.26008	1114.54943	33.85746	208.76027	1138.09670	105.84135	321.83806	1005.46143	91.98775	372.14850	894.40527	90.56095	345.63953	879.71060	121.88130	140.68887	1381.89308	-460.03023	29.19367	1187.27813	-418.56233	50.07784	1204.35925	-495.76340	121.47567	1050.98896	-508.11770	122.03192	936.01359	-544.79065	83.48336	943.54185	-573.29232	201.40356	972.06591	-101.38294	201.67420	959.45386	-314.40284	213.38332	973.04148	-100.97464	204.38902	971.47673	-274.99998	
38	0.37000000	171.56832	550.21450	-81.21841	188.25288	421.98844	-99.05847	73.29942	97.81976	-146.82426	12.58107	70.23885	-203.48889	204.00033	32.69829	-99.13914	247.25765	61.33913	-166.89630	391.86218	580.22309	-399.75747	430.87635	474.27156	-386.52111	311.59863	141.46961	-342.85459	259.05945	124.23484	-274.63114	435.31671	50.89257	-392.42664	480.75083	75.80307	-335.14805	182.22737	311.54967	-127.66341	120.82178	415.22290	-62.29213	117.83252	298.53426	-74.79290	342.22524	480.57420	-406.91404	348.05757	359.79940	-416.39001	306.39663	769.14873	-72.65645	295.03803	659.77066	-96.75311	250.87747	630.13203	-49.84098	213.59199	764.35125	-7.83879	201.95424	652.47528	-37.46946	372.03203	843.78988	-405.14801	439.56583	723.89501	-403.29507	279.87584	789.50092	-439.26761	347.36376	668.33560	-429.87008	293.96141	1052.17366	-67.13825	87.24383	1082.20907	-151.10603	292.24672	1049.65455	-331.02601	82.71618	1081.26264	-248.16612	158.33003	1587.13522	-176.49269	245.45284	1506.05751	-5.32466	197.56358	1541.68383	-363.17825	295.41980	1503.00327	-174.33354	286.29963	1501.80651	-221.42129	269.98943	1337.55863	59.72230	190.60467	1113.47486	35.65113	224.34143	1137.56936	107.30344	338.65554	1006.03689	93.18563	390.14208	895.53281	91.84280	363.84750	880.68480	123.35378	151.23825	1380.65529	-459.48910	38.74849	1186.83091	-416.88879	58.60489	1203.94768	-494.32697	128.77850	1050.09240	-508.04781	127.88918	935.16968	-544.97062	88.98306	942.97587	-572.79302	212.31681	970.76671	-101.21276	213.82359	958.19564	-314.23089	224.31611	971.91901	-100.59703	216.19681	970.22276	-274.58258	
